# xmcd CD database file
#
# Track frame offsets:
#	150
#	12085
#	25632
#	40525
#	57630
#	67595
#	81642
#	95820
#	113187
#	125265
#	140720
#	153425
#	164637
#	183197
#	203300
#	218410
#	233140
#	249445
#	263250
#	276890
#	285830
#
# Disc length: 3955 seconds
#
# Revision: 0
# Processed by: cddbd v1.5.2PL0 Copyright (c) Steve Scherf et al.
# Submitted via: CDex 1.51
#
DISCID=120f7115
DTITLE=Ella Fitzgerald - Best Of
DYEAR=1900
DGENRE=Jazz
TTITLE0=A-Tisket, A-Tasket
TTITLE1=We Can't Go On This Way
TTITLE2=Stairway to the Stars
TTITLE3=What's the Matter With Me
TTITLE4=Vagabond Dreams
TTITLE5=Starlit Hour
TTITLE6=Sugar Blues
TTITLE7=It's a Blue World
TTITLE8=Is There Somebody Else?
TTITLE9=Chewing Gum
TTITLE10=Sing Song Swing
TTITLE11=Flying Home
TTITLE12=I'll See You In My Dreams
TTITLE13=I'll Always Be In Love With You
TTITLE14=That's Rich
TTITLE15=How High The Moon
TTITLE16=There's a Small Hotel
TTITLE17=Basin Street Blues
TTITLE18=You'll Have to Swing It
TTITLE19=Lover, Come Back to Me
TTITLE20=That Old Black Magic
EXTD=
EXTT0=
EXTT1=
EXTT2=
EXTT3=
EXTT4=
EXTT5=
EXTT6=
EXTT7=
EXTT8=
EXTT9=
EXTT10=
EXTT11=
EXTT12=
EXTT13=
EXTT14=
EXTT15=
EXTT16=
EXTT17=
EXTT18=
EXTT19=
EXTT20=
PLAYORDER=
